<mxfile host="app.diagrams.net" modified="2021-11-05T14:37:23.408Z" agent="5.0 (Windows NT 10.0; Win64; x64) AppleWebKit/537.36 (KHTML, like Gecko) Chrome/95.0.4638.69 Safari/537.36" etag="P805aOTo7dyOcazz_Fc9" version="15.4.0" type="github">
  <diagram id="TpZoN8divmcVwAIUX2ep" name="Page-1">
    <mxGraphModel dx="2031" dy="1089" grid="1" gridSize="10" guides="1" tooltips="1" connect="1" arrows="1" fold="1" page="1" pageScale="1" pageWidth="1169" pageHeight="827" math="0" shadow="0">
      <root>
        <mxCell id="0" />
        <mxCell id="1" parent="0" />
        <mxCell id="QqyqPYGshrtGTKx5xBMr-22" value="" style="edgeStyle=orthogonalEdgeStyle;rounded=0;orthogonalLoop=1;jettySize=auto;html=1;" edge="1" parent="1" source="QqyqPYGshrtGTKx5xBMr-1" target="QqyqPYGshrtGTKx5xBMr-2">
          <mxGeometry relative="1" as="geometry" />
        </mxCell>
        <mxCell id="QqyqPYGshrtGTKx5xBMr-1" value="&lt;font style=&quot;font-size: 14px&quot;&gt;Open main user page&lt;/font&gt;" style="rounded=1;whiteSpace=wrap;html=1;" vertex="1" parent="1">
          <mxGeometry x="90" y="160" width="120" height="60" as="geometry" />
        </mxCell>
        <mxCell id="QqyqPYGshrtGTKx5xBMr-23" value="" style="edgeStyle=orthogonalEdgeStyle;rounded=0;orthogonalLoop=1;jettySize=auto;html=1;" edge="1" parent="1" source="QqyqPYGshrtGTKx5xBMr-2" target="QqyqPYGshrtGTKx5xBMr-3">
          <mxGeometry relative="1" as="geometry" />
        </mxCell>
        <mxCell id="QqyqPYGshrtGTKx5xBMr-2" value="&lt;span style=&quot;font-size: 11.0pt ; line-height: 107% ; font-family: &amp;#34;calibri&amp;#34; , sans-serif&quot;&gt;Click&lt;br/&gt;“User Groups &amp;amp; Packages”&lt;/span&gt;" style="rounded=1;whiteSpace=wrap;html=1;" vertex="1" parent="1">
          <mxGeometry x="260" y="160" width="120" height="60" as="geometry" />
        </mxCell>
        <mxCell id="QqyqPYGshrtGTKx5xBMr-24" value="" style="edgeStyle=orthogonalEdgeStyle;rounded=0;orthogonalLoop=1;jettySize=auto;html=1;" edge="1" parent="1" source="QqyqPYGshrtGTKx5xBMr-3" target="QqyqPYGshrtGTKx5xBMr-4">
          <mxGeometry relative="1" as="geometry" />
        </mxCell>
        <mxCell id="QqyqPYGshrtGTKx5xBMr-3" value="&lt;span style=&quot;font-size: 11.0pt ; line-height: 107% ; font-family: &amp;#34;calibri&amp;#34; , sans-serif&quot;&gt;Verify&lt;br/&gt;“System ID”&lt;/span&gt;" style="rounded=1;whiteSpace=wrap;html=1;" vertex="1" parent="1">
          <mxGeometry x="430" y="160" width="120" height="60" as="geometry" />
        </mxCell>
        <mxCell id="QqyqPYGshrtGTKx5xBMr-25" value="" style="edgeStyle=orthogonalEdgeStyle;rounded=0;orthogonalLoop=1;jettySize=auto;html=1;" edge="1" parent="1" source="QqyqPYGshrtGTKx5xBMr-4" target="QqyqPYGshrtGTKx5xBMr-5">
          <mxGeometry relative="1" as="geometry" />
        </mxCell>
        <mxCell id="QqyqPYGshrtGTKx5xBMr-4" value="&lt;span style=&quot;font-size: 11.0pt ; line-height: 107% ; font-family: &amp;#34;calibri&amp;#34; , sans-serif&quot;&gt;Click “User Groups &amp;amp; Packages”&lt;/span&gt;" style="rounded=1;whiteSpace=wrap;html=1;" vertex="1" parent="1">
          <mxGeometry x="600" y="160" width="120" height="60" as="geometry" />
        </mxCell>
        <mxCell id="QqyqPYGshrtGTKx5xBMr-26" value="" style="edgeStyle=orthogonalEdgeStyle;rounded=0;orthogonalLoop=1;jettySize=auto;html=1;" edge="1" parent="1" source="QqyqPYGshrtGTKx5xBMr-5" target="QqyqPYGshrtGTKx5xBMr-7">
          <mxGeometry relative="1" as="geometry" />
        </mxCell>
        <mxCell id="QqyqPYGshrtGTKx5xBMr-5" value="&lt;span style=&quot;font-size: 11.0pt ; line-height: 107% ; font-family: &amp;#34;calibri&amp;#34; , sans-serif&quot;&gt;Click&lt;br/&gt;on “Add Package”&lt;/span&gt;" style="rounded=1;whiteSpace=wrap;html=1;" vertex="1" parent="1">
          <mxGeometry x="770" y="160" width="120" height="60" as="geometry" />
        </mxCell>
        <mxCell id="QqyqPYGshrtGTKx5xBMr-29" value="" style="edgeStyle=orthogonalEdgeStyle;rounded=0;orthogonalLoop=1;jettySize=auto;html=1;" edge="1" parent="1" source="QqyqPYGshrtGTKx5xBMr-6" target="QqyqPYGshrtGTKx5xBMr-8">
          <mxGeometry relative="1" as="geometry" />
        </mxCell>
        <mxCell id="QqyqPYGshrtGTKx5xBMr-6" value="&lt;span style=&quot;font-size: 11.0pt ; line-height: 107% ; font-family: &amp;#34;calibri&amp;#34; , sans-serif&quot;&gt;Department:&lt;br/&gt;Personal Training&lt;/span&gt;" style="rounded=1;whiteSpace=wrap;html=1;fillColor=#f5f5f5;strokeColor=#666666;fontColor=#333333;" vertex="1" parent="1">
          <mxGeometry x="260" y="280" width="120" height="60" as="geometry" />
        </mxCell>
        <mxCell id="QqyqPYGshrtGTKx5xBMr-7" value="&lt;span style=&quot;font-size: 11.0pt ; line-height: 107% ; font-family: &amp;#34;calibri&amp;#34; , sans-serif&quot;&gt;Fill&lt;br/&gt;out form as&lt;/span&gt;" style="rounded=1;whiteSpace=wrap;html=1;" vertex="1" parent="1">
          <mxGeometry x="940" y="160" width="120" height="60" as="geometry" />
        </mxCell>
        <mxCell id="QqyqPYGshrtGTKx5xBMr-30" value="" style="edgeStyle=orthogonalEdgeStyle;rounded=0;orthogonalLoop=1;jettySize=auto;html=1;" edge="1" parent="1" source="QqyqPYGshrtGTKx5xBMr-8" target="QqyqPYGshrtGTKx5xBMr-9">
          <mxGeometry relative="1" as="geometry" />
        </mxCell>
        <mxCell id="QqyqPYGshrtGTKx5xBMr-8" value="&lt;span style=&quot;font-size: 11.0pt ; line-height: 107% ; font-family: &amp;#34;calibri&amp;#34; , sans-serif&quot;&gt;Package&lt;br/&gt;Type: Individual&lt;/span&gt;" style="rounded=1;whiteSpace=wrap;html=1;fillColor=#f5f5f5;strokeColor=#666666;fontColor=#333333;" vertex="1" parent="1">
          <mxGeometry x="430" y="280" width="120" height="60" as="geometry" />
        </mxCell>
        <mxCell id="QqyqPYGshrtGTKx5xBMr-32" style="edgeStyle=orthogonalEdgeStyle;rounded=0;orthogonalLoop=1;jettySize=auto;html=1;exitX=0.5;exitY=1;exitDx=0;exitDy=0;" edge="1" parent="1" source="QqyqPYGshrtGTKx5xBMr-9" target="QqyqPYGshrtGTKx5xBMr-10">
          <mxGeometry relative="1" as="geometry" />
        </mxCell>
        <mxCell id="QqyqPYGshrtGTKx5xBMr-9" value="&lt;span style=&quot;font-size: 11.0pt ; line-height: 107% ; font-family: &amp;#34;calibri&amp;#34; , sans-serif&quot;&gt;Select&lt;br/&gt;package: Starter session ($440/4 pack)&lt;/span&gt;" style="rounded=1;whiteSpace=wrap;html=1;fillColor=#f5f5f5;strokeColor=#666666;fontColor=#333333;" vertex="1" parent="1">
          <mxGeometry x="600" y="280" width="120" height="60" as="geometry" />
        </mxCell>
        <mxCell id="QqyqPYGshrtGTKx5xBMr-33" value="" style="edgeStyle=orthogonalEdgeStyle;rounded=0;orthogonalLoop=1;jettySize=auto;html=1;" edge="1" parent="1" source="QqyqPYGshrtGTKx5xBMr-10" target="QqyqPYGshrtGTKx5xBMr-11">
          <mxGeometry relative="1" as="geometry" />
        </mxCell>
        <mxCell id="QqyqPYGshrtGTKx5xBMr-10" value="&lt;span style=&quot;font-size: 11.0pt ; line-height: 107% ; font-family: &amp;#34;calibri&amp;#34; , sans-serif&quot;&gt;Verify&lt;br/&gt;Member and Sessions&amp;nbsp;&lt;/span&gt;" style="rounded=1;whiteSpace=wrap;html=1;" vertex="1" parent="1">
          <mxGeometry x="90" y="400" width="120" height="60" as="geometry" />
        </mxCell>
        <mxCell id="QqyqPYGshrtGTKx5xBMr-34" value="" style="edgeStyle=orthogonalEdgeStyle;rounded=0;orthogonalLoop=1;jettySize=auto;html=1;" edge="1" parent="1" source="QqyqPYGshrtGTKx5xBMr-11" target="QqyqPYGshrtGTKx5xBMr-12">
          <mxGeometry relative="1" as="geometry" />
        </mxCell>
        <mxCell id="QqyqPYGshrtGTKx5xBMr-11" value="Set two months expiration date" style="rounded=1;whiteSpace=wrap;html=1;" vertex="1" parent="1">
          <mxGeometry x="260" y="400" width="120" height="60" as="geometry" />
        </mxCell>
        <mxCell id="QqyqPYGshrtGTKx5xBMr-35" value="" style="edgeStyle=orthogonalEdgeStyle;rounded=0;orthogonalLoop=1;jettySize=auto;html=1;" edge="1" parent="1" source="QqyqPYGshrtGTKx5xBMr-12" target="QqyqPYGshrtGTKx5xBMr-13">
          <mxGeometry relative="1" as="geometry" />
        </mxCell>
        <mxCell id="QqyqPYGshrtGTKx5xBMr-12" value="Check &quot;Share Package&quot; checkbox" style="rounded=1;whiteSpace=wrap;html=1;" vertex="1" parent="1">
          <mxGeometry x="430" y="400" width="120" height="60" as="geometry" />
        </mxCell>
        <mxCell id="QqyqPYGshrtGTKx5xBMr-36" value="" style="edgeStyle=orthogonalEdgeStyle;rounded=0;orthogonalLoop=1;jettySize=auto;html=1;" edge="1" parent="1" source="QqyqPYGshrtGTKx5xBMr-13" target="QqyqPYGshrtGTKx5xBMr-14">
          <mxGeometry relative="1" as="geometry" />
        </mxCell>
        <mxCell id="QqyqPYGshrtGTKx5xBMr-13" value="&lt;span style=&quot;font-size: 11.0pt ; line-height: 107% ; font-family: &amp;#34;calibri&amp;#34; , sans-serif&quot;&gt;Uncheck&lt;br/&gt;“Email PDF” and click “Skip Signature”&lt;/span&gt;" style="rounded=1;whiteSpace=wrap;html=1;" vertex="1" parent="1">
          <mxGeometry x="600" y="400" width="120" height="60" as="geometry" />
        </mxCell>
        <mxCell id="QqyqPYGshrtGTKx5xBMr-37" value="" style="edgeStyle=orthogonalEdgeStyle;rounded=0;orthogonalLoop=1;jettySize=auto;html=1;" edge="1" parent="1" source="QqyqPYGshrtGTKx5xBMr-14" target="QqyqPYGshrtGTKx5xBMr-15">
          <mxGeometry relative="1" as="geometry" />
        </mxCell>
        <mxCell id="QqyqPYGshrtGTKx5xBMr-14" value="&lt;span style=&quot;font-size: 11.0pt ; line-height: 107% ; font-family: &amp;#34;calibri&amp;#34; , sans-serif&quot;&gt;Enter&lt;br/&gt;a PIN&amp;nbsp;&lt;/span&gt;" style="rounded=1;whiteSpace=wrap;html=1;" vertex="1" parent="1">
          <mxGeometry x="770" y="400" width="120" height="60" as="geometry" />
        </mxCell>
        <mxCell id="QqyqPYGshrtGTKx5xBMr-40" value="" style="edgeStyle=orthogonalEdgeStyle;rounded=0;orthogonalLoop=1;jettySize=auto;html=1;" edge="1" parent="1" source="QqyqPYGshrtGTKx5xBMr-15" target="QqyqPYGshrtGTKx5xBMr-16">
          <mxGeometry relative="1" as="geometry" />
        </mxCell>
        <mxCell id="QqyqPYGshrtGTKx5xBMr-15" value="&lt;span style=&quot;font-size: 11.0pt ; line-height: 107% ; font-family: &amp;#34;calibri&amp;#34; , sans-serif&quot;&gt;Uncheck &quot;Print Receipt&quot; and &quot;Email Receipt&quot;&lt;/span&gt;" style="rounded=1;whiteSpace=wrap;html=1;" vertex="1" parent="1">
          <mxGeometry x="940" y="400" width="120" height="60" as="geometry" />
        </mxCell>
        <mxCell id="QqyqPYGshrtGTKx5xBMr-16" value="&lt;span style=&quot;font-size: 11.0pt ; line-height: 107% ; font-family: &amp;#34;calibri&amp;#34; , sans-serif&quot;&gt;Uncheck &quot;Print Receipt&quot; and &quot;Email Receipt&quot;, &lt;br&gt;click Pay&lt;/span&gt;" style="rounded=1;whiteSpace=wrap;html=1;fillColor=#d5e8d4;strokeColor=#82b366;" vertex="1" parent="1">
          <mxGeometry x="940" y="510" width="120" height="60" as="geometry" />
        </mxCell>
        <mxCell id="QqyqPYGshrtGTKx5xBMr-21" value="" style="edgeStyle=orthogonalEdgeStyle;rounded=0;orthogonalLoop=1;jettySize=auto;html=1;" edge="1" parent="1" source="QqyqPYGshrtGTKx5xBMr-17" target="QqyqPYGshrtGTKx5xBMr-1">
          <mxGeometry relative="1" as="geometry" />
        </mxCell>
        <mxCell id="QqyqPYGshrtGTKx5xBMr-17" value="Open Clubautomation webpage" style="rounded=1;whiteSpace=wrap;html=1;fillColor=#f8cecc;strokeColor=#b85450;" vertex="1" parent="1">
          <mxGeometry x="90" y="50" width="120" height="60" as="geometry" />
        </mxCell>
        <mxCell id="QqyqPYGshrtGTKx5xBMr-28" value="" style="edgeStyle=orthogonalEdgeStyle;rounded=0;orthogonalLoop=1;jettySize=auto;html=1;exitX=0.5;exitY=1;exitDx=0;exitDy=0;entryX=0.5;entryY=0;entryDx=0;entryDy=0;" edge="1" parent="1" source="QqyqPYGshrtGTKx5xBMr-7" target="QqyqPYGshrtGTKx5xBMr-6">
          <mxGeometry relative="1" as="geometry">
            <mxPoint x="909.9999999999995" y="210" as="sourcePoint" />
            <mxPoint x="250" y="330" as="targetPoint" />
            <Array as="points">
              <mxPoint x="1000" y="255" />
              <mxPoint x="320" y="255" />
            </Array>
          </mxGeometry>
        </mxCell>
      </root>
    </mxGraphModel>
  </diagram>
</mxfile>
